<?xml version="1.0" encoding="UTF-8"?>
<svg id="_레이어_2" data-name="레이어 2" xmlns="http://www.w3.org/2000/svg" viewBox="0 0 39 39">
  <defs>
    <style>
      .cls-1 {
        fill: none;
        stroke-width: 3px;
      }

      .cls-1, .cls-2 {
        stroke: #fff;
        stroke-miterlimit: 10;
      }

      .cls-2 {
        fill: #fff;
      }
    </style>
  </defs>
  <g id="_레이어_1-2" data-name="레이어 1">
    <g>
      <path class="cls-2" d="M23.84,22.93v2.32c-.71.71-1.56,1.36-2.54,1.94-1.17.69-2.15,1.04-2.95,1.04-.67,0-1.12-.47-1.34-1.42-.11-.47-.16-1.22-.16-2.24s.15-2.11.46-3.39c.31-1.28.74-2.61,1.29-3.99h2.3l-.27.82c-.57,1.7-.97,3.05-1.2,4.07-.24,1.02-.36,1.91-.36,2.65,0,.88.17,1.31.52,1.31.46,0,1.33-.55,2.62-1.64.55-.47,1.09-.97,1.64-1.48ZM21.16,11.26c.89,0,1.34.26,1.34.77,0,.29-.07.66-.22,1.11-.15.45-.31.77-.51.96s-.55.29-1.08.29c-.69,0-1.04-.23-1.04-.68,0-.64.14-1.2.42-1.7.28-.49.64-.74,1.08-.74Z"/>
      <circle class="cls-1" cx="19.5" cy="19.5" r="18"/>
    </g>
  </g>
</svg>