<?xml version="1.0" encoding="UTF-8"?>
<svg id="_레이어_2" data-name="레이어 2" xmlns="http://www.w3.org/2000/svg" viewBox="0 0 1024 1024">
  <defs>
    <style>
      .cls-1 {
        stroke: #000;
        stroke-linecap: round;
        stroke-linejoin: round;
      }

      .cls-1, .cls-2 {
        stroke-width: 11px;
      }

      .cls-1, .cls-3 {
        fill: #fff;
      }

      .cls-4 {
        fill: red;
      }

      .cls-4, .cls-3 {
        stroke-width: 0px;
      }

      .cls-2 {
        fill: #665820;
        stroke: #665820;
      }
    </style>
  </defs>
  <g id="_레이어_2-2" data-name="레이어 2">
    <g>
      <rect class="cls-3" width="1024" height="1024"/>
      <path class="cls-1" d="M316.83,348.21c6.74-59.47,17.51-89.05,40.5-114.91,33.02-37.14,84.65-48.42,143.24-48.42s109.93,16.63,148.76,49.88c38.82,33.25,58.23,75.08,58.23,125.46,0,25.2-5.64,49.66-16.92,73.39-11.28,23.73-38.01,54.2-80.2,91.41-32.23,28.72-52.51,51.35-60.86,67.9-8.35,16.55-12.96,46.22-13.84,88.99h-75.59c0-33.98,1.24-58.81,3.74-74.49,2.49-15.67,7.61-30.98,15.38-45.92,7.76-14.94,17.87-29,30.32-42.19,12.45-13.18,29.95-29.59,52.51-49.22,28.71-25.49,46.65-45.48,53.83-59.99,7.18-14.5,10.77-29.22,10.77-44.17,0-30.76-12.4-57.54-36.47-81.08-20.55-20.1-44.09-32.29-88.77-34.94-58.94-3.49-88.67,20.36-103.32,107.08l-81.3-8.79ZM544.95,840.11h-90.09v-90.09h90.09v90.09Z"/>
      <path class="cls-4" d="M404.04,357.07c.55-3.53,1.23-7.69,1.88-11.3.86-4.78-2.49-9.29-7.31-9.85l-76.63-8.97c-4.52-.53-8.64,2.62-9.31,7.12-.57,3.82-1.24,8.4-1.78,12.32-.65,4.7,2.72,9.01,7.44,9.52l76.48,8.22c4.46.48,8.52-2.63,9.22-7.06Z"/>
      <path class="cls-2" d="M481.97,563.67l72.75,14.91c2.87.59,4.36,3.79,2.95,6.35-6.11,11.05-19.14,40.66-20.92,94.42-.08,2.32-1.98,4.16-4.3,4.17l-68.81.15c-2.21,0-4.07-1.66-4.3-3.86-1.64-15.93-6.06-77.32,18.14-114.24.98-1.49,2.75-2.25,4.5-1.89Z"/>
    </g>
  </g>
</svg>